<svg width="114" height="111" viewBox="0 0 114 111" fill="none" xmlns="http://www.w3.org/2000/svg">
<rect y="30.7817" width="90" height="85.052" rx="20" transform="rotate(-20 0 30.7817)" fill="#F2C94C"/>
<g clipPath="url(#clip0_118_1080)">
<path d="M64.1683 74.5187C53.356 78.454 41.4014 72.8795 37.466 62.0672C33.5306 51.2548 39.1052 39.3002 49.9175 35.3648C60.7298 31.4294 72.6845 37.004 76.6199 47.8163C80.5552 58.6287 74.9807 70.5833 64.1683 74.5187ZM62.7433 70.6033C66.897 69.0915 70.28 65.9915 72.1481 61.9854C74.0161 57.9793 74.2163 53.3951 72.7045 49.2414C71.1926 45.0877 68.0927 41.7047 64.0866 39.8366C60.0804 37.9685 55.4963 37.7684 51.3426 39.2802C47.1889 40.792 43.8059 43.892 41.9378 47.8981C40.0697 51.9042 39.8696 56.4884 41.3814 60.6421C42.8932 64.7958 45.9932 68.1788 49.9993 70.0469C54.0054 71.915 58.5896 72.1151 62.7433 70.6033ZM59.0006 54.2292L66.8314 51.379L68.2565 55.2944L56.5103 59.5697L51.5225 45.8658L55.4379 44.4407L59.0006 54.2292Z" fill="white"/>
</g>
<defs>
<clipPath id="clip0_118_1080">
<rect width="50" height="50" fill="white" transform="translate(25 39.9999) rotate(-20)"/>
</clipPath>
</defs>
</svg>
